<?xml version="1.0" encoding="UTF-8"?>
<svg width="77px" height="70px" viewBox="0 0 77 70" version="1.1" xmlns="http://www.w3.org/2000/svg" xmlns:xlink="http://www.w3.org/1999/xlink">
    <!-- Generator: Sketch 41.2 (35397) - http://www.bohemiancoding.com/sketch -->
    <title>Untitled</title>
    <desc>Created with Sketch.</desc>
    <defs></defs>
    <g id="Page-1" stroke="none" stroke-width="1" fill="none" fill-rule="evenodd">
        <g id="noun_482405_cc" fill="#000000">
            <g id="Group">
                <circle id="Oval" cx="15" cy="9.6" r="1.8"></circle>
                <circle id="Oval" cx="20.1" cy="9.6" r="1.8"></circle>
                <circle id="Oval" cx="10" cy="9.6" r="1.8"></circle>
                <path d="M71.9,0.5 L5.4,0.5 C2.8,0.5 0.7,3.1 0.7,6.3 L0.7,63.6 C0.7,66.8 2.8,69.4 5.4,69.4 L71.9,69.4 C74.5,69.4 76.6,66.8 76.6,63.6 L76.6,6.3 C76.6,3.1 74.5,0.5 71.9,0.5 Z M74.4,17.9 L74.4,63.2 C74.4,65 73.3,66.5 71.8,66.5 L5.5,66.5 C4.1,66.5 2.9,65 2.9,63.2 L2.9,17.9 L74.4,17.9 Z M74.4,7.1 L74.4,14.9 L2.9,14.9 L2.9,7.1 C2.9,5 4,3.3 5.5,3.3 L71.8,3.3 C73.2,3.3 74.4,5.1 74.4,7.1 Z" id="Shape"></path>
                <path d="M20.9,39.5 C20.9,39.8 21,40.2 21.3,40.4 C21.6,40.7 21.9,40.8 22.2,40.8 C22.5,40.8 22.8,40.7 23.1,40.4 L24.5,39 L25.9,40.4 C26.2,40.7 26.5,40.8 26.8,40.8 C27.1,40.8 27.4,40.7 27.7,40.4 C27.9,40.2 28.1,39.8 28.1,39.5 C28.1,39.2 28,38.8 27.7,38.6 L26.4,37.2 L27.9,35.7 C28.4,35.2 28.4,34.4 27.9,33.9 C27.4,33.4 26.5,33.4 26.1,33.9 L24.7,35.3 L23.3,33.9 C22.8,33.4 21.9,33.4 21.5,33.9 C21,34.4 21,35.2 21.5,35.7 L22.9,37.1 L21.5,38.5 C21,38.8 20.9,39.1 20.9,39.5 Z" id="Shape"></path>
                <path d="M49.4,39.5 C49.4,39.8 49.5,40.2 49.8,40.4 C50.1,40.7 50.4,40.8 50.7,40.8 C50.9,40.8 51.3,40.7 51.6,40.4 L53,39 L54.4,40.4 C54.7,40.7 55,40.8 55.3,40.8 C55.6,40.8 55.9,40.7 56.2,40.4 C56.7,39.9 56.7,39.1 56.2,38.6 L54.8,37.2 L56.2,35.8 C56.7,35.3 56.7,34.5 56.2,34 C56,33.8 55.6,33.6 55.3,33.6 L55.3,33.6 C55,33.6 54.6,33.7 54.4,34 L53,35.3 L51.6,33.9 C51.4,33.7 51,33.5 50.7,33.5 L50.7,33.5 C50.4,33.5 50,33.6 49.8,33.9 C49.6,34.1 49.4,34.5 49.4,34.8 C49.4,35.1 49.5,35.5 49.8,35.7 L51.2,37.1 L49.8,38.5 C49.5,38.8 49.4,39.1 49.4,39.5 Z" id="Shape"></path>
                <path d="M26.5,51.4 C26.5,52.2 27.1,52.6 27.7,52.6 L41.3,52.6 C41.1,55.3 41.8,57.4 43.4,58.5 C44,58.9 44.8,59.1 45.5,59.1 C46.4,59.1 47.1,58.9 47.7,58.4 C49.5,57.1 50.1,54.4 49.3,51.3 C49.3,51.1 49.2,50.9 49.1,50.8 C48.8,50.4 48.5,50.2 48,50.2 L27.7,50.2 C27,50.2 26.5,50.7 26.5,51.4 Z M43.9,52.6 L47.1,52.6 C47.4,54.3 47.1,55.7 46.2,56.3 C45.8,56.6 45.2,56.7 44.8,56.4 C44,55.8 43.6,54.4 43.9,52.6 Z" id="Shape"></path>
            </g>
        </g>
    </g>
</svg>